<svg width="126" height="37" viewBox="0 0 126 37" fill="none" xmlns="http://www.w3.org/2000/svg">
<mask id="mask0_1_2516" style="mask-type:alpha" maskUnits="userSpaceOnUse" x="0" y="2" width="30" height="33">
<path d="M12.0589 2.94615C13.8053 1.93787 15.9569 1.93787 17.7033 2.94615L26.94 8.27895C28.6864 9.28722 29.7622 11.1506 29.7622 13.1671V23.8327C29.7622 25.8493 28.6864 27.7127 26.94 28.7209L17.7033 34.0537C15.9569 35.062 13.8053 35.062 12.0589 34.0537L2.8222 28.7209C1.07582 27.7127 0 25.8493 0 23.8327V13.1671C0 11.1506 1.07582 9.28722 2.8222 8.27895L12.0589 2.94615Z" fill="#C4C4C4"/>
</mask>
<g mask="url(#mask0_1_2516)">
<path d="M14.8768 1.03589L31.1887 10.4535L22.9338 14.8983L19.5241 13.0384L16.4243 13.3484L8.67486 10.5586L6.815 13.0384L5.88507 14.2783L4.02521 13.0384L-1.43499 10.4535L14.8768 1.03589Z" fill="url(#paint0_linear_1_2516)"/>
<path d="M-0.12854 10.587L6.19935 13.6556L9.91908 22.6449L9.91908 22.9549L11.159 24.5048L16.7386 28.8445L14.8806 36.5836L-0.12854 27.9181L-0.12854 10.587Z" fill="url(#paint1_linear_1_2516)"/>
<path d="M19.8341 22.9543L23.8638 14.2749L29.886 10.5887L29.886 27.9197L14.8769 36.5852L14.5645 28.8438L19.8341 22.9543Z" fill="url(#paint2_linear_1_2516)"/>
<path d="M14.8762 8.08276C12.3114 8.08276 9.97404 9.05624 8.21317 10.6538L9.64274 22.9616C10.0337 23.142 12.2758 23.8916 12.7064 23.8916H15.8062C16.354 23.8916 20.1459 22.7238 20.1459 23.2716L19.8359 21.9696C19.8359 22.5175 19.3918 22.9616 18.844 22.9616H10.9085C10.3607 22.9616 9.91661 22.5175 9.91661 21.9696V17.1676C9.91661 16.737 9.82317 16.3116 9.64274 15.9206L8.21317 10.6538C6.61557 12.4146 4.95697 15.4372 4.95697 18.002C4.95697 23.4804 9.39793 27.9213 14.8762 27.9213C20.3546 27.9213 24.7955 23.4804 24.7955 18.002C24.7955 12.5237 20.3546 8.08276 14.8762 8.08276Z" fill="url(#paint3_linear_1_2516)"/>
<path d="M13.0393 12.2229C13.2582 12.1384 13.4926 12.1053 13.7245 12.1259C13.9565 12.1466 14.1799 12.2206 14.378 12.3423C14.5761 12.464 14.7436 12.6302 14.8678 12.8283C14.992 13.0264 15.0697 13.2512 15.0949 13.4858C15.275 15.1757 14.8955 16.8867 14.0159 18.3504C13.1364 19.814 11.8065 20.9474 10.2351 21.5727L9.12304 18.6973C10.0617 18.3235 10.8568 17.6475 11.3845 16.7745C11.9123 15.9015 12.1433 14.8804 12.0414 13.8702C12.0043 13.5252 12.0821 13.1758 12.2623 12.8774C12.4426 12.579 12.7151 12.3486 13.0366 12.2229L13.0393 12.2229Z" fill="#9C5AFF"/>
<path d="M13.0265 12.2277C12.6466 12.3791 12.3394 12.6762 12.1723 13.0539C12.0052 13.4316 11.9919 13.8588 12.1354 14.2417L15.3854 22.9086C15.5291 23.2914 15.8177 23.5985 16.1879 23.7623C16.558 23.926 16.9794 23.9331 17.3593 23.782C17.5475 23.7071 17.7198 23.5957 17.8664 23.4539C18.0131 23.3122 18.1311 23.143 18.2139 22.9559C18.2967 22.7689 18.3425 22.5677 18.3488 22.3639C18.355 22.16 18.3216 21.9575 18.2504 21.7679L15.0004 13.1011C14.9294 12.9115 14.822 12.7384 14.6843 12.5919C14.5466 12.4453 14.3814 12.3282 14.1981 12.2471C14.0148 12.1659 13.817 12.1225 13.6159 12.1192C13.4149 12.1159 13.2146 12.1527 13.0265 12.2277Z" fill="#9C5AFF"/>
<path d="M17.345 23.7841C17.1261 23.8687 16.8918 23.9019 16.6599 23.8813C16.428 23.8607 16.2046 23.7867 16.0065 23.6651C15.8084 23.5435 15.6409 23.3774 15.5167 23.1793C15.3925 22.9812 15.3148 22.7564 15.2896 22.5219C15.1096 20.832 15.4892 19.121 16.3687 17.6573C17.2482 16.1935 18.5779 15.06 20.1491 14.4344L21.2613 17.3109C20.3226 17.6847 19.5275 18.3607 18.9998 19.2337C18.472 20.1067 18.241 21.1277 18.3429 22.138C18.3795 22.4831 18.3011 22.8324 18.1204 23.1306C17.9396 23.4288 17.6667 23.6588 17.345 23.7841Z" fill="#9C5AFF"/>
</g>
<path d="M43.4838 27.5V10.0455H50.0293C51.3702 10.0455 52.4952 10.2955 53.4043 10.7955C54.319 11.2955 55.0094 11.983 55.4753 12.858C55.9469 13.7273 56.1827 14.7159 56.1827 15.8239C56.1827 16.9432 55.9469 17.9375 55.4753 18.8068C55.0037 19.6761 54.3077 20.3608 53.3872 20.8608C52.4668 21.3551 51.3332 21.6023 49.9866 21.6023H45.6486V19.0028H49.5605C50.3446 19.0028 50.9866 18.8665 51.4866 18.5938C51.9866 18.321 52.356 17.946 52.5946 17.4688C52.8389 16.9915 52.9611 16.4432 52.9611 15.8239C52.9611 15.2045 52.8389 14.6591 52.5946 14.1875C52.356 13.7159 51.9838 13.3494 51.4781 13.0881C50.9781 12.821 50.3332 12.6875 49.5435 12.6875H46.6457V27.5H43.4838ZM62.3254 27.7642C61.4959 27.7642 60.7487 27.6165 60.0839 27.321C59.4248 27.0199 58.9021 26.5767 58.5158 25.9915C58.1351 25.4062 57.9447 24.6847 57.9447 23.8267C57.9447 23.0881 58.0811 22.4773 58.3538 21.9943C58.6266 21.5114 58.9987 21.125 59.4703 20.8352C59.9419 20.5455 60.4731 20.3267 61.0641 20.179C61.6606 20.0256 62.2771 19.9148 62.9135 19.8466C63.6805 19.767 64.3027 19.696 64.78 19.6335C65.2572 19.5653 65.6038 19.4631 65.8197 19.3267C66.0413 19.1847 66.1521 18.9659 66.1521 18.6705V18.6193C66.1521 17.9773 65.9618 17.4801 65.5811 17.1278C65.2004 16.7756 64.6521 16.5994 63.9362 16.5994C63.1805 16.5994 62.5811 16.7642 62.1379 17.0938C61.7004 17.4233 61.405 17.8125 61.2516 18.2614L58.3709 17.8523C58.5981 17.0568 58.9731 16.392 59.4959 15.858C60.0186 15.3182 60.6578 14.9148 61.4135 14.6477C62.1692 14.375 63.0044 14.2386 63.9192 14.2386C64.5498 14.2386 65.1777 14.3125 65.8027 14.4602C66.4277 14.608 66.9987 14.8523 67.5158 15.1932C68.0328 15.5284 68.4476 15.9858 68.7601 16.5653C69.0783 17.1449 69.2373 17.8693 69.2373 18.7386V27.5H66.2714V25.7017H66.1692C65.9817 26.0653 65.7175 26.4062 65.3766 26.7244C65.0413 27.0369 64.618 27.2898 64.1067 27.483C63.601 27.6705 63.0072 27.7642 62.3254 27.7642ZM63.1266 25.4972C63.7459 25.4972 64.2828 25.375 64.7373 25.1307C65.1919 24.8807 65.5413 24.5511 65.7856 24.142C66.0356 23.733 66.1606 23.2869 66.1606 22.804V21.2614C66.0641 21.3409 65.8993 21.4148 65.6663 21.483C65.4391 21.5511 65.1834 21.6108 64.8993 21.6619C64.6152 21.7131 64.3339 21.7585 64.0555 21.7983C63.7771 21.8381 63.5356 21.8722 63.3311 21.9006C62.8709 21.9631 62.4589 22.0653 62.0953 22.2074C61.7317 22.3494 61.4447 22.5483 61.2345 22.804C61.0243 23.054 60.9192 23.3778 60.9192 23.7756C60.9192 24.3438 61.1266 24.7727 61.5413 25.0625C61.9561 25.3523 62.4845 25.4972 63.1266 25.4972ZM76.1067 27.7642C75.2771 27.7642 74.53 27.6165 73.8652 27.321C73.2061 27.0199 72.6834 26.5767 72.297 25.9915C71.9163 25.4062 71.726 24.6847 71.726 23.8267C71.726 23.0881 71.8623 22.4773 72.1351 21.9943C72.4078 21.5114 72.78 21.125 73.2516 20.8352C73.7231 20.5455 74.2544 20.3267 74.8453 20.179C75.4419 20.0256 76.0584 19.9148 76.6947 19.8466C77.4618 19.767 78.0839 19.696 78.5612 19.6335C79.0385 19.5653 79.3851 19.4631 79.601 19.3267C79.8226 19.1847 79.9334 18.9659 79.9334 18.6705V18.6193C79.9334 17.9773 79.743 17.4801 79.3623 17.1278C78.9817 16.7756 78.4334 16.5994 77.7175 16.5994C76.9618 16.5994 76.3623 16.7642 75.9192 17.0938C75.4817 17.4233 75.1862 17.8125 75.0328 18.2614L72.1521 17.8523C72.3794 17.0568 72.7544 16.392 73.2771 15.858C73.7998 15.3182 74.4391 14.9148 75.1947 14.6477C75.9504 14.375 76.7856 14.2386 77.7004 14.2386C78.3311 14.2386 78.9589 14.3125 79.5839 14.4602C80.2089 14.608 80.78 14.8523 81.297 15.1932C81.8141 15.5284 82.2288 15.9858 82.5413 16.5653C82.8595 17.1449 83.0186 17.8693 83.0186 18.7386V27.5H80.0527V25.7017H79.9504C79.7629 26.0653 79.4987 26.4062 79.1578 26.7244C78.8226 27.0369 78.3993 27.2898 77.8879 27.483C77.3822 27.6705 76.7885 27.7642 76.1067 27.7642ZM76.9078 25.4972C77.5271 25.4972 78.0641 25.375 78.5186 25.1307C78.9731 24.8807 79.3226 24.5511 79.5669 24.142C79.8169 23.733 79.9419 23.2869 79.9419 22.804V21.2614C79.8453 21.3409 79.6805 21.4148 79.4476 21.483C79.2203 21.5511 78.9646 21.6108 78.6805 21.6619C78.3964 21.7131 78.1152 21.7585 77.8368 21.7983C77.5584 21.8381 77.3169 21.8722 77.1123 21.9006C76.6521 21.9631 76.2402 22.0653 75.8766 22.2074C75.5129 22.3494 75.226 22.5483 75.0158 22.804C74.8055 23.054 74.7004 23.3778 74.7004 23.7756C74.7004 24.3438 74.9078 24.7727 75.3226 25.0625C75.7373 25.3523 76.2658 25.4972 76.9078 25.4972ZM85.9504 27.5V25.5398L92.7004 17.0767V16.9659H86.172V14.4091H96.476V16.5142L90.0498 24.8324V24.9432H96.6976V27.5H85.9504ZM103.364 27.7642C102.535 27.7642 101.788 27.6165 101.123 27.321C100.464 27.0199 99.9412 26.5767 99.5548 25.9915C99.1741 25.4062 98.9838 24.6847 98.9838 23.8267C98.9838 23.0881 99.1202 22.4773 99.3929 21.9943C99.6656 21.5114 100.038 21.125 100.509 20.8352C100.981 20.5455 101.512 20.3267 102.103 20.179C102.7 20.0256 103.316 19.9148 103.953 19.8466C104.72 19.767 105.342 19.696 105.819 19.6335C106.296 19.5653 106.643 19.4631 106.859 19.3267C107.08 19.1847 107.191 18.9659 107.191 18.6705V18.6193C107.191 17.9773 107.001 17.4801 106.62 17.1278C106.239 16.7756 105.691 16.5994 104.975 16.5994C104.22 16.5994 103.62 16.7642 103.177 17.0938C102.739 17.4233 102.444 17.8125 102.291 18.2614L99.4099 17.8523C99.6372 17.0568 100.012 16.392 100.535 15.858C101.058 15.3182 101.697 14.9148 102.453 14.6477C103.208 14.375 104.043 14.2386 104.958 14.2386C105.589 14.2386 106.217 14.3125 106.842 14.4602C107.467 14.608 108.038 14.8523 108.555 15.1932C109.072 15.5284 109.487 15.9858 109.799 16.5653C110.117 17.1449 110.276 17.8693 110.276 18.7386V27.5H107.311V25.7017H107.208C107.021 26.0653 106.757 26.4062 106.416 26.7244C106.08 27.0369 105.657 27.2898 105.146 27.483C104.64 27.6705 104.046 27.7642 103.364 27.7642ZM104.166 25.4972C104.785 25.4972 105.322 25.375 105.776 25.1307C106.231 24.8807 106.58 24.5511 106.825 24.142C107.075 23.733 107.2 23.2869 107.2 22.804V21.2614C107.103 21.3409 106.938 21.4148 106.705 21.483C106.478 21.5511 106.222 21.6108 105.938 21.6619C105.654 21.7131 105.373 21.7585 105.095 21.7983C104.816 21.8381 104.575 21.8722 104.37 21.9006C103.91 21.9631 103.498 22.0653 103.134 22.2074C102.771 22.3494 102.484 22.5483 102.274 22.804C102.063 23.054 101.958 23.3778 101.958 23.7756C101.958 24.3438 102.166 24.7727 102.58 25.0625C102.995 25.3523 103.524 25.4972 104.166 25.4972ZM117.146 27.7642C116.316 27.7642 115.569 27.6165 114.904 27.321C114.245 27.0199 113.722 26.5767 113.336 25.9915C112.955 25.4062 112.765 24.6847 112.765 23.8267C112.765 23.0881 112.901 22.4773 113.174 21.9943C113.447 21.5114 113.819 21.125 114.291 20.8352C114.762 20.5455 115.293 20.3267 115.884 20.179C116.481 20.0256 117.097 19.9148 117.734 19.8466C118.501 19.767 119.123 19.696 119.6 19.6335C120.078 19.5653 120.424 19.4631 120.64 19.3267C120.862 19.1847 120.972 18.9659 120.972 18.6705V18.6193C120.972 17.9773 120.782 17.4801 120.401 17.1278C120.021 16.7756 119.472 16.5994 118.757 16.5994C118.001 16.5994 117.401 16.7642 116.958 17.0938C116.521 17.4233 116.225 17.8125 116.072 18.2614L113.191 17.8523C113.418 17.0568 113.793 16.392 114.316 15.858C114.839 15.3182 115.478 14.9148 116.234 14.6477C116.989 14.375 117.825 14.2386 118.739 14.2386C119.37 14.2386 119.998 14.3125 120.623 14.4602C121.248 14.608 121.819 14.8523 122.336 15.1932C122.853 15.5284 123.268 15.9858 123.58 16.5653C123.899 17.1449 124.058 17.8693 124.058 18.7386V27.5H121.092V25.7017H120.989C120.802 26.0653 120.538 26.4062 120.197 26.7244C119.862 27.0369 119.438 27.2898 118.927 27.483C118.421 27.6705 117.828 27.7642 117.146 27.7642ZM117.947 25.4972C118.566 25.4972 119.103 25.375 119.558 25.1307C120.012 24.8807 120.362 24.5511 120.606 24.142C120.856 23.733 120.981 23.2869 120.981 22.804V21.2614C120.884 21.3409 120.72 21.4148 120.487 21.483C120.259 21.5511 120.004 21.6108 119.72 21.6619C119.436 21.7131 119.154 21.7585 118.876 21.7983C118.597 21.8381 118.356 21.8722 118.151 21.9006C117.691 21.9631 117.279 22.0653 116.916 22.2074C116.552 22.3494 116.265 22.5483 116.055 22.804C115.845 23.054 115.739 23.3778 115.739 23.7756C115.739 24.3438 115.947 24.7727 116.362 25.0625C116.776 25.3523 117.305 25.4972 117.947 25.4972Z" fill="#111928"/>
<defs>
<linearGradient id="paint0_linear_1_2516" x1="14.5644" y1="2.4992" x2="14.2819" y2="13.8215" gradientUnits="userSpaceOnUse">
<stop stop-color="#4E00D3"/>
<stop offset="1" stop-color="#7A36F0"/>
</linearGradient>
<linearGradient id="paint1_linear_1_2516" x1="14.8787" y1="25.4347" x2="5.90309" y2="14.6731" gradientUnits="userSpaceOnUse">
<stop stop-color="#5508D8"/>
<stop offset="1" stop-color="#7935EF"/>
</linearGradient>
<linearGradient id="paint2_linear_1_2516" x1="14.8744" y1="26.674" x2="23.4474" y2="15.2149" gradientUnits="userSpaceOnUse">
<stop stop-color="#5205D6"/>
<stop offset="1" stop-color="#7A35F0"/>
</linearGradient>
<linearGradient id="paint3_linear_1_2516" x1="14.8762" y1="8.08276" x2="14.8762" y2="27.9213" gradientUnits="userSpaceOnUse">
<stop stop-color="#7935EF"/>
<stop offset="1" stop-color="#6117E0"/>
</linearGradient>
</defs>
</svg>
